RobotoSerifText-SuperCondItalic 05r.ufo
<glyph name="ampersand" format="2">
  <advance width="665"/>
  <unicode hex="0026"/>
  <anchor x="466.0" y="403" identifier="nuuXjw6oeI"/>
  <outline>
    <contour>
      <point x="605" y="0" type="line"/>
      <point x="619" y="78" type="line"/>
      <point x="612" y="78" type="line" smooth="yes"/>
      <point x="596" y="78"/>
      <point x="583" y="83"/>
      <point x="565" y="107" type="curve" smooth="yes"/>
      <point x="419" y="278"/>
      <point x="353" y="387"/>
      <point x="353" y="506" type="curve" smooth="yes"/>
      <point x="353" y="586"/>
      <point x="365" y="626"/>
      <point x="389" y="626" type="curve" smooth="yes"/>
      <point x="403" y="626"/>
      <point x="406" y="607"/>
      <point x="406" y="579" type="curve" smooth="yes"/>
      <point x="406" y="528"/>
      <point x="379" y="475"/>
      <point x="301" y="449" type="curve"/>
      <point x="323" y="377" type="line"/>
      <point x="461" y="417"/>
      <point x="544" y="484"/>
      <point x="544" y="585" type="curve" smooth="yes"/>
      <point x="544" y="660"/>
      <point x="496" y="720"/>
      <point x="378" y="720" type="curve" smooth="yes"/>
      <point x="241" y="720"/>
      <point x="154" y="635"/>
      <point x="154" y="512" type="curve" smooth="yes"/>
      <point x="154" y="367"/>
      <point x="252" y="162"/>
      <point x="405" y="0" type="curve"/>
    </contour>
    <contour>
      <point x="297" y="91" type="curve" smooth="yes"/>
      <point x="223" y="91"/>
      <point x="188" y="139"/>
      <point x="188" y="218" type="curve" smooth="yes"/>
      <point x="188" y="306"/>
      <point x="217" y="366"/>
      <point x="266" y="399" type="curve"/>
      <point x="243" y="436" type="line"/>
      <point x="86" y="418"/>
      <point x="-16" y="342"/>
      <point x="-16" y="207" type="curve" smooth="yes"/>
      <point x="-16" y="64"/>
      <point x="80" y="-11"/>
      <point x="228" y="-11" type="curve" smooth="yes"/>
      <point x="425" y="-11"/>
      <point x="541" y="193"/>
      <point x="570" y="288" type="curve" smooth="yes"/>
      <point x="580" y="322"/>
      <point x="589" y="327"/>
      <point x="606" y="327" type="curve" smooth="yes"/>
      <point x="621" y="327" type="line"/>
      <point x="635" y="403" type="line"/>
      <point x="466" y="403" type="line"/>
      <point x="452" y="327" type="line"/>
      <point x="460" y="327" type="line" smooth="yes"/>
      <point x="476" y="327"/>
      <point x="491" y="324"/>
      <point x="491" y="317" type="curve"/>
      <point x="478" y="215"/>
      <point x="384" y="91"/>
    </contour>
  </outline>
</glyph>
<glyph name="quotesingle" format="2">
  <advance width="220"/>
  <unicode hex="0027"/>
  <outline>
    <contour>
      <point x="268" y="710" type="line"/>
      <point x="248" y="603"/>
      <point x="224" y="581"/>
      <point x="198" y="446" type="curve"/>
      <point x="88" y="446" type="line"/>
      <point x="117" y="591"/>
      <point x="94" y="620"/>
      <point x="114" y="710" type="curve"/>
    </contour>
  </outline>
</glyph>
<glyph name="zero" format="2">
  <advance width="540"/>
  <unicode hex="0030"/>
  <guideline x="249" y="144" angle="80" identifier="aD3Y5hj4Ux"/>
  <outline>
    <contour>
      <point x="238" y="-8" type="curve"/>
      <point x="422" y="-8"/>
      <point x="535" y="151"/>
      <point x="535" y="381" type="curve" smooth="yes"/>
      <point x="535" y="541"/>
      <point x="431" y="616"/>
      <point x="302" y="616" type="curve"/>
      <point x="118" y="616"/>
      <point x="5" y="457"/>
      <point x="5" y="227" type="curve" smooth="yes"/>
      <point x="5" y="67"/>
      <point x="109" y="-8"/>
    </contour>
    <contour>
      <point x="230" y="76" type="curve"/>
      <point x="214" y="76"/>
      <point x="206" y="83"/>
      <point x="206" y="114" type="curve" smooth="yes"/>
      <point x="206" y="145"/>
      <point x="215" y="203"/>
      <point x="233" y="304" type="curve" smooth="yes"/>
      <point x="268" y="502"/>
      <point x="278" y="532"/>
      <point x="310" y="532" type="curve"/>
      <point x="326" y="532"/>
      <point x="334" y="525"/>
      <point x="334" y="494" type="curve" smooth="yes"/>
      <point x="334" y="463"/>
      <point x="325" y="405"/>
      <point x="307" y="304" type="curve" smooth="yes"/>
      <point x="272" y="106"/>
      <point x="262" y="76"/>
    </contour>
  </outline>
</glyph>
<glyph name="one" format="2">
  <advance width="541"/>
  <unicode hex="0031"/>
  <guideline x="14" y="77" angle="80" identifier="PEA21Xl8jK"/>
  <guideline x="436" y="77" angle="80" identifier="81km5APsBC"/>
  <anchor x="387.0" y="122" identifier="AQ8TS0QMMf"/>
  <anchor x="165.0" y="122" identifier="vUCN58tHoZ"/>
  <anchor x="88.0" y="413" identifier="LO9LBeed8f"/>
  <outline>
    <contour>
      <point x="381" y="122" type="curve" smooth="yes"/>
      <point x="467" y="609" type="line"/>
      <point x="264" y="609" type="line"/>
      <point x="231" y="561"/>
      <point x="194" y="533"/>
      <point x="103" y="532" type="curve"/>
      <point x="82" y="413" type="line"/>
      <point x="158" y="412"/>
      <point x="204" y="440"/>
      <point x="250" y="532" type="curve"/>
      <point x="229" y="524" type="line"/>
      <point x="159" y="122" type="line" smooth="yes"/>
      <point x="152" y="84"/>
      <point x="127" y="77"/>
      <point x="66" y="77" type="curve" smooth="yes"/>
      <point x="49" y="77" type="line"/>
      <point x="35" y="0" type="line"/>
      <point x="457" y="0" type="line"/>
      <point x="471" y="77" type="line"/>
      <point x="464" y="77" type="line" smooth="yes"/>
      <point x="386" y="77"/>
      <point x="374" y="84"/>
    </contour>
  </outline>
</glyph>
<glyph name="I" format="2">
  <advance width="335"/>
  <unicode hex="0049"/>
  <anchor x="179" y="741" name="top"/>
  <anchor x="244" y="0" name="right"/>
  <anchor x="179" y="0" name="bottom"/>
  <outline>
    <contour>
      <point x="21" y="103" type="line" smooth="yes"/>
      <point x="18" y="84"/>
      <point x="7" y="77"/>
      <point x="-9" y="77" type="curve" smooth="yes"/>
      <point x="-20" y="77" type="line"/>
      <point x="-34" y="0" type="line"/>
      <point x="279" y="0" type="line"/>
      <point x="293" y="77" type="line"/>
      <point x="285" y="77" type="line" smooth="yes"/>
      <point x="260" y="77"/>
      <point x="255" y="84"/>
      <point x="260" y="113" type="curve" smooth="yes"/>
      <point x="347" y="607" type="line" smooth="yes"/>
      <point x="350" y="626"/>
      <point x="361" y="633"/>
      <point x="377" y="633" type="curve"/>
      <point x="391" y="633" type="line"/>
      <point x="404" y="710" type="line"/>
      <point x="91" y="710" type="line"/>
      <point x="78" y="633" type="line"/>
      <point x="84" y="633" type="line" smooth="yes"/>
      <point x="101" y="633"/>
      <point x="113" y="626"/>
      <point x="108" y="597" type="curve" smooth="yes"/>
    </contour>
  </outline>
</glyph>
<glyph name="P" format="2">
  <advance width="583"/>
  <unicode hex="0050"/>
  <guideline x="627" y="491" angle="80" identifier="DWb8gnLXWV"/>
  <guideline x="406" y="491" angle="80" identifier="RifNIoQ4AP"/>
  <guideline x="256" y="87" angle="80" identifier="1Hnr2P0wCW"/>
  <anchor x="395" y="491" identifier="Dq8hCLsedZ"/>
  <anchor x="359" y="356" identifier="kvGKfSvduO"/>
  <anchor x="484" y="268" identifier="GVWHCU6mjw"/>
  <anchor x="627" y="491" identifier="Vi9ta85SBY"/>
  <outline>
    <contour>
      <point x="368" y="625" type="line" smooth="yes"/>
      <point x="395" y="625"/>
      <point x="412" y="616"/>
      <point x="412" y="565" type="curve" smooth="yes"/>
      <point x="412.0" y="460.0"/>
      <point x="382" y="356.0"/>
      <point x="332" y="356" type="curve" smooth="yes"/>
      <point x="304" y="356" type="line"/>
      <point x="351" y="625" type="line"/>
    </contour>
    <contour>
      <point x="410" y="710.0" type="curve" smooth="yes"/>
      <point x="91" y="710" type="line"/>
      <point x="78" y="633" type="line"/>
      <point x="84" y="633" type="line" smooth="yes"/>
      <point x="101" y="633"/>
      <point x="113" y="626"/>
      <point x="108" y="597" type="curve" smooth="yes"/>
      <point x="21" y="103" type="line" smooth="yes"/>
      <point x="18" y="84"/>
      <point x="7" y="77"/>
      <point x="-9" y="77" type="curve" smooth="yes"/>
      <point x="-20" y="77" type="line"/>
      <point x="-34" y="0" type="line"/>
      <point x="279" y="0" type="line"/>
      <point x="291" y="77" type="line"/>
      <point x="279" y="77" type="line" smooth="yes"/>
      <point x="265.0" y="77.0"/>
      <point x="255" y="80"/>
      <point x="256" y="87" type="curve" smooth="yes"/>
      <point x="288" y="268" type="line"/>
      <point x="375" y="268" type="line" smooth="yes"/>
      <point x="529" y="268"/>
      <point x="632.0" y="372.0"/>
      <point x="632" y="535" type="curve" smooth="yes"/>
      <point x="632.0" y="657.0"/>
      <point x="546" y="710"/>
    </contour>
  </outline>
</glyph>
<glyph name="S" format="2">
  <advance width="518"/>
  <unicode hex="0053"/>
  <anchor x="293" y="741" name="top"/>
  <anchor x="293" y="0" name="bottom"/>
  <outline>
    <contour>
      <point x="269" y="-10" type="curve" smooth="yes"/>
      <point x="429" y="-10"/>
      <point x="505" y="91"/>
      <point x="505" y="240" type="curve" smooth="yes"/>
      <point x="505" y="349"/>
      <point x="444" y="411"/>
      <point x="355" y="457" type="curve" smooth="yes"/>
      <point x="294" y="492"/>
      <point x="244" y="508"/>
      <point x="244" y="564" type="curve" smooth="yes"/>
      <point x="244" y="603"/>
      <point x="264" y="628"/>
      <point x="298" y="628" type="curve" smooth="yes"/>
      <point x="345" y="628"/>
      <point x="389" y="584"/>
      <point x="403" y="520" type="curve"/>
      <point x="491" y="520" type="line"/>
      <point x="520" y="704" type="line"/>
      <point x="441" y="704" type="line"/>
      <point x="397" y="565" type="line"/>
      <point x="417" y="558"/>
      <point x="435" y="568"/>
      <point x="460" y="548" type="curve"/>
      <point x="446" y="649"/>
      <point x="386" y="720"/>
      <point x="273" y="720" type="curve" smooth="yes"/>
      <point x="122" y="720"/>
      <point x="43" y="626"/>
      <point x="43" y="496" type="curve" smooth="yes"/>
      <point x="43" y="377"/>
      <point x="97" y="318"/>
      <point x="179" y="269" type="curve" smooth="yes"/>
      <point x="248" y="228"/>
      <point x="302" y="206"/>
      <point x="302" y="152" type="curve" smooth="yes"/>
      <point x="302" y="106"/>
      <point x="288" y="83"/>
      <point x="245" y="83" type="curve" smooth="yes"/>
      <point x="175" y="83"/>
      <point x="125" y="139"/>
      <point x="106" y="227" type="curve"/>
      <point x="3" y="227" type="line"/>
      <point x="-32" y="0" type="line"/>
      <point x="51" y="0" type="line"/>
      <point x="98" y="172" type="line"/>
      <point x="97" y="172"/>
      <point x="69" y="188"/>
      <point x="37" y="208" type="curve"/>
      <point x="54" y="73"/>
      <point x="114" y="-10"/>
    </contour>
  </outline>
</glyph>
<glyph name="U" format="2">
  <advance width="614"/>
  <unicode hex="0055"/>
  <guideline x="276" y="243" angle="80" identifier="p7AJ1VFJ7Q"/>
  <guideline x="390" y="633" angle="0" identifier="KNJmngdNy2"/>
  <guideline x="530" y="610" angle="80" identifier="PKyQieh4u1"/>
  <guideline x="618" y="596" angle="80" identifier="HnFlVMyt3G"/>
  <guideline x="499" y="633" angle="80" identifier="JDCt4cFnkU"/>
  <guideline x="662" y="633" angle="80" identifier="MgKA9WFmId"/>
  <anchor x="313.0" y="741" name="top"/>
  <anchor x="363.0" y="0" name="right"/>
  <anchor x="313.0" y="0" name="bottom"/>
  <outline>
    <contour>
      <point x="287" y="243" type="curve" smooth="yes"/>
      <point x="355" y="623" type="line" smooth="yes"/>
      <point x="356" y="630"/>
      <point x="372" y="633"/>
      <point x="385" y="633" type="curve" smooth="yes"/>
      <point x="392" y="633" type="line"/>
      <point x="405" y="710" type="line"/>
      <point x="94" y="710" type="line"/>
      <point x="81" y="633" type="line"/>
      <point x="89" y="633" type="line" smooth="yes"/>
      <point x="113.0" y="633.0"/>
      <point x="118" y="625"/>
      <point x="113" y="597" type="curve" smooth="yes"/>
      <point x="58" y="270" type="line" smooth="yes"/>
      <point x="52" y="237"/>
      <point x="49" y="206"/>
      <point x="49" y="179" type="curve" smooth="yes"/>
      <point x="49" y="49"/>
      <point x="118" y="-10"/>
      <point x="287" y="-11" type="curve" smooth="yes"/>
      <point x="431.0" y="-12.0"/>
      <point x="523" y="54"/>
      <point x="544" y="174" type="curve" smooth="yes"/>
      <point x="618" y="596" type="line" smooth="yes"/>
      <point x="623" y="625"/>
      <point x="637" y="633"/>
      <point x="654" y="633" type="curve" smooth="yes"/>
      <point x="662" y="633" type="line"/>
      <point x="675" y="710" type="line"/>
      <point x="512" y="710" type="line"/>
      <point x="499" y="633" type="line"/>
      <point x="506" y="633" type="line" smooth="yes"/>
      <point x="520" y="633"/>
      <point x="533" y="629"/>
      <point x="531" y="615" type="curve" smooth="yes"/>
      <point x="455" y="184" type="line" smooth="yes"/>
      <point x="446" y="132"/>
      <point x="414" y="94"/>
      <point x="361" y="94" type="curve" smooth="yes"/>
      <point x="305" y="94"/>
      <point x="280" y="119"/>
      <point x="280" y="179" type="curve" smooth="yes"/>
      <point x="280" y="197"/>
      <point x="283" y="218"/>
    </contour>
  </outline>
</glyph>
<glyph name="X" format="2">
  <advance width="608"/>
  <unicode hex="0058"/>
  <guideline x="125" y="78.0" angle="80" identifier="NTeoflpqph"/>
  <guideline x="466" y="634" angle="80" identifier="unrWOfQGfl"/>
  <guideline x="557" y="78.0" angle="80" identifier="xuirFCzTP8"/>
  <outline>
    <contour>
      <point x="89" y="634" type="line"/>
      <point x="93" y="634" type="line" smooth="yes"/>
      <point x="109" y="634"/>
      <point x="111" y="630"/>
      <point x="120" y="602" type="curve" smooth="yes"/>
      <point x="205" y="331" type="line"/>
      <point x="210" y="327" type="line"/>
      <point x="280" y="88" type="line"/>
      <point x="279" y="81"/>
      <point x="265" y="78"/>
      <point x="253" y="78" type="curve" smooth="yes"/>
      <point x="242" y="78" type="line"/>
      <point x="228" y="1" type="line"/>
      <point x="555" y="1" type="line"/>
      <point x="569" y="78" type="line"/>
      <point x="562" y="78" type="line" smooth="yes"/>
      <point x="546" y="78"/>
      <point x="543" y="84"/>
      <point x="533" y="112" type="curve" smooth="yes"/>
      <point x="429" y="412" type="line"/>
      <point x="427" y="415" type="line"/>
      <point x="372" y="624" type="line"/>
      <point x="375" y="631"/>
      <point x="388" y="634"/>
      <point x="400" y="634" type="curve" smooth="yes"/>
      <point x="410" y="634" type="line"/>
      <point x="423" y="711" type="line"/>
      <point x="103" y="711" type="line"/>
    </contour>
    <contour>
      <point x="-35" y="1" type="line"/>
      <point x="120" y="1" type="line"/>
      <point x="134" y="78" type="line"/>
      <point x="125" y="78" type="line" smooth="yes"/>
      <point x="112" y="78"/>
      <point x="98" y="85"/>
      <point x="100" y="96" type="curve"/>
      <point x="275" y="353" type="line"/>
      <point x="219" y="396" type="line"/>
      <point x="32" y="124" type="line" smooth="yes"/>
      <point x="9" y="90"/>
      <point x="2" y="78"/>
      <point x="-14" y="78" type="curve" smooth="yes"/>
      <point x="-21" y="78" type="line"/>
    </contour>
    <contour>
      <point x="431" y="343" type="line"/>
      <point x="578" y="589" type="line" smooth="yes"/>
      <point x="602" y="630"/>
      <point x="609" y="634"/>
      <point x="628" y="634" type="curve" smooth="yes"/>
      <point x="631" y="634" type="line"/>
      <point x="644" y="711" type="line"/>
      <point x="491" y="711" type="line"/>
      <point x="478" y="634" type="line"/>
      <point x="488" y="634" type="line" smooth="yes"/>
      <point x="500" y="634"/>
      <point x="512" y="627"/>
      <point x="511" y="616" type="curve"/>
      <point x="372" y="383" type="line"/>
    </contour>
  </outline>
</glyph>
<glyph name="bracketleft" format="2">
  <advance width="313"/>
  <unicode hex="005B"/>
  <guideline x="241.0" y="-130.0" angle="80" identifier="JFcM1RfUXk"/>
  <outline>
    <contour>
      <point x="241" y="-37" type="line"/>
      <point x="158" y="-37" type="line"/>
      <point x="280" y="657" type="line"/>
      <point x="363" y="657" type="line"/>
      <point x="379" y="750" type="line"/>
      <point x="117" y="750" type="line"/>
      <point x="-37" y="-130" type="line"/>
      <point x="225" y="-130" type="line"/>
    </contour>
  </outline>
</glyph>
<glyph name="backslash" format="2">
  <advance width="431"/>
  <unicode hex="005C"/>
  <outline>
    <contour>
      <point x="131" y="733" type="line"/>
      <point x="-14" y="733" type="line"/>
      <point x="306" y="-147" type="line"/>
      <point x="451" y="-147" type="line"/>
    </contour>
  </outline>
</glyph>
<glyph name="b" format="2">
  <advance width="574"/>
  <unicode hex="0062"/>
  <guideline x="-7" y="69" angle="80" identifier="palU9hIR4B"/>
  <guideline x="223" y="39" angle="80" identifier="kqB3y8R7AU"/>
  <outline>
    <contour>
      <point x="254" y="-14" type="curve" smooth="yes" identifier="TsT3bmaGBs"/>
      <point x="457" y="-14" identifier="cIRmXFHoTJ"/>
      <point x="562" y="146" identifier="ajpEhBkUaS"/>
      <point x="565" y="324" type="curve" smooth="yes" identifier="Lw9C7u7a2v"/>
      <point x="567" y="451" identifier="ip9BhgNfOv"/>
      <point x="509" y="524" identifier="WsNmi9O8Mr"/>
      <point x="409" y="524" type="curve" smooth="yes" identifier="vHsQHrOGei"/>
      <point x="334" y="524" identifier="zwToSLs4pe"/>
      <point x="297" y="477" identifier="M9HNbxIsVk"/>
      <point x="262" y="392" type="curve" identifier="KEaUa9FfKz"/>
      <point x="277" y="377" type="line" identifier="RQKsFcmVdv"/>
      <point x="291" y="410" identifier="4uapKvIH7V"/>
      <point x="307" y="420" identifier="qirFBK0p5F"/>
      <point x="317" y="420" type="curve" smooth="yes" identifier="iKDmPI0U4Q"/>
      <point x="332" y="420" identifier="rmAgGdhbWq"/>
      <point x="342" y="415" identifier="8Nsa8RiGOM"/>
      <point x="342" y="358" type="curve" smooth="yes" identifier="bXCD0OELdj"/>
      <point x="342" y="260" identifier="vR97c3wB9J"/>
      <point x="304" y="70" identifier="uJj7Px8wg0"/>
      <point x="253" y="70" type="curve" smooth="yes" identifier="y39xzuIXAI"/>
      <point x="239" y="70" identifier="kE181JBFyI"/>
      <point x="229" y="80" identifier="9tbTizegyo"/>
      <point x="230" y="119" type="curve" identifier="ldlEchRjZM"/>
      <point x="210" y="96" identifier="pcefk76kfk"/>
      <point x="207" y="47" identifier="Bj4adofiwW"/>
      <point x="223" y="39" type="curve" identifier="SQwlC1CBSb"/>
      <point x="345" y="735" type="line" identifier="JbCZPivBDB"/>
      <point x="85" y="735" type="line" identifier="LdOC6pm94Z"/>
      <point x="72" y="660" type="line" identifier="4pSJ7zyFp4"/>
      <point x="79" y="658" type="line" smooth="yes" identifier="nXBEGrFhf8"/>
      <point x="91" y="655" identifier="VuoeJHfuew"/>
      <point x="95" y="647" identifier="vKkBGAMm1E"/>
      <point x="92" y="629" type="curve" smooth="yes" identifier="ctXP4ycEHr"/>
      <point x="-7" y="69" type="line" identifier="t9rr9Zjzv7"/>
      <point x="40" y="28" identifier="4Ro3DYWdVs"/>
      <point x="127" y="-14" identifier="dOffSMFbLq"/>
    </contour>
  </outline>
</glyph>
<glyph name="g" format="2">
  <advance width="568"/>
  <unicode hex="0067"/>
  <guideline x="350" y="446" angle="80" identifier="ZgdCwxb0Qh"/>
  <guideline x="600" y="523" angle="80" identifier="zviP1qRBkP"/>
  <anchor x="268" y="513" name="top"/>
  <outline>
    <contour>
      <point x="271" y="17" type="line" smooth="yes"/>
      <point x="250" y="-104"/>
      <point x="242" y="-151"/>
      <point x="183" y="-151" type="curve" smooth="yes"/>
      <point x="129" y="-151"/>
      <point x="105" y="-122"/>
      <point x="92" y="-89" type="curve"/>
      <point x="71" y="-121"/>
      <point x="63" y="-168"/>
      <point x="111" y="-170" type="curve"/>
      <point x="133" y="-45" type="line"/>
      <point x="-21" y="-45" type="line"/>
      <point x="-41" y="-161" type="line"/>
      <point x="-1" y="-192"/>
      <point x="72" y="-236"/>
      <point x="205" y="-236" type="curve" smooth="yes"/>
      <point x="385" y="-236"/>
      <point x="472" y="-160"/>
      <point x="499" y="-11" type="curve" smooth="yes"/>
      <point x="595" y="523" type="line"/>
      <point x="440" y="523" type="line"/>
      <point x="365" y="446" type="line"/>
      <point x="347" y="446" type="line"/>
    </contour>
    <contour>
      <point x="165" y="-14" type="curve" smooth="yes"/>
      <point x="240" y="-14"/>
      <point x="277" y="33"/>
      <point x="312" y="118" type="curve"/>
      <point x="297" y="133" type="line"/>
      <point x="283" y="100"/>
      <point x="268" y="90"/>
      <point x="258" y="90" type="curve" smooth="yes"/>
      <point x="239" y="90"/>
      <point x="232" y="98"/>
      <point x="232" y="152" type="curve" smooth="yes"/>
      <point x="232" y="251"/>
      <point x="270" y="440"/>
      <point x="321" y="440" type="curve" smooth="yes"/>
      <point x="344" y="440"/>
      <point x="361" y="417"/>
      <point x="358" y="340" type="curve"/>
      <point x="459" y="287" type="line"/>
      <point x="469" y="418"/>
      <point x="425" y="524"/>
      <point x="302" y="524" type="curve" smooth="yes"/>
      <point x="111" y="524"/>
      <point x="12" y="364"/>
      <point x="9" y="186" type="curve" smooth="yes"/>
      <point x="7" y="59"/>
      <point x="65" y="-14"/>
    </contour>
  </outline>
</glyph>
<glyph name="i" format="2">
  <advance width="294"/>
  <unicode hex="0069"/>
  <guideline x="253" y="206" angle="80" identifier="98Np8FbrSJ"/>
  <anchor x="153" y="513" name="top"/>
  <anchor x="203" y="-10" name="right"/>
  <anchor x="151" y="-10" name="bottom"/>
  <outline>
    <contour>
      <point x="55" y="407" type="curve" smooth="yes"/>
      <point x="24" y="235" type="line" smooth="yes"/>
      <point x="13" y="176"/>
      <point x="11" y="145"/>
      <point x="11" y="116" type="curve" smooth="yes"/>
      <point x="11" y="24"/>
      <point x="61" y="-11"/>
      <point x="148" y="-11" type="curve" smooth="yes"/>
      <point x="196" y="-11"/>
      <point x="240.8776825108218" y="3.8980687590181695"/>
      <point x="265" y="24" type="curve"/>
      <point x="277" y="93" type="line"/>
      <point x="271" y="91.0"/>
      <point x="266" y="90"/>
      <point x="259" y="90" type="curve" smooth="yes"/>
      <point x="243" y="90"/>
      <point x="237" y="95"/>
      <point x="237" y="111" type="curve" smooth="yes"/>
      <point x="237" y="126"/>
      <point x="240" y="142"/>
      <point x="245" y="168" type="curve" smooth="yes"/>
      <point x="307" y="513" type="line"/>
      <point x="48" y="513" type="line"/>
      <point x="35" y="438" type="line"/>
      <point x="42" y="436" type="line" smooth="yes"/>
      <point x="53" y="433"/>
      <point x="58" y="425"/>
    </contour>
    <contour>
      <point x="218" y="758" type="curve"/>
      <point x="153.609756097561" y="758.0"/>
      <point x="98.0" y="722.0"/>
      <point x="98" y="649" type="curve" smooth="yes"/>
      <point x="98.0" y="592.0"/>
      <point x="140.83185840707964" y="553.0"/>
      <point x="208" y="553" type="curve"/>
      <point x="272.390243902439" y="553.0"/>
      <point x="328.0" y="589.0"/>
      <point x="328" y="662" type="curve" smooth="yes"/>
      <point x="328.0" y="719.0"/>
      <point x="285.1681415929204" y="758.0"/>
    </contour>
  </outline>
</glyph>
<glyph name="m" format="2">
  <advance width="848"/>
  <unicode hex="006D"/>
  <guideline x="142" y="191" angle="0" identifier="NLz4zovuIr"/>
  <guideline x="316" y="310" angle="80" identifier="YkP5XCdbcG"/>
  <guideline x="544" y="292" angle="80" identifier="mgDWfBIlyT"/>
  <anchor x="415" y="-10" name="bottom"/>
  <outline>
    <contour>
      <point x="-17" y="0" type="line"/>
      <point x="55" y="407" type="line" smooth="yes"/>
      <point x="58" y="425"/>
      <point x="52" y="433"/>
      <point x="41" y="436" type="curve" smooth="yes"/>
      <point x="34" y="438" type="line"/>
      <point x="47" y="513" type="line"/>
      <point x="297" y="513" type="line"/>
      <point x="276" y="379" type="line"/>
      <point x="288" y="405" type="line"/>
      <point x="217" y="0" type="line"/>
    </contour>
    <contour>
      <point x="262" y="0" type="line"/>
      <point x="321" y="325" type="line" smooth="yes"/>
      <point x="325" y="349"/>
      <point x="328" y="366"/>
      <point x="328" y="378" type="curve" smooth="yes"/>
      <point x="328" y="392"/>
      <point x="324" y="397"/>
      <point x="316" y="397" type="curve"/>
      <point x="303" y="397"/>
      <point x="291" y="385"/>
      <point x="275" y="347" type="curve"/>
      <point x="258" y="380" type="line"/>
      <point x="297" y="478"/>
      <point x="355" y="523"/>
      <point x="437" y="523" type="curve" smooth="yes"/>
      <point x="521" y="523"/>
      <point x="558" y="475"/>
      <point x="558" y="404" type="curve" smooth="yes"/>
      <point x="558" y="374"/>
      <point x="554" y="343"/>
      <point x="544" y="288" type="curve" smooth="yes"/>
      <point x="494" y="0" type="line"/>
    </contour>
    <contour>
      <point x="796" y="168" type="line" smooth="yes" identifier="KQfa1PqJpK"/>
      <point x="791" y="142" identifier="r6iSZImL8O"/>
      <point x="788" y="126" identifier="3YpJQvW3ed"/>
      <point x="788" y="111" type="curve" smooth="yes" identifier="3FxfkR3M16"/>
      <point x="788" y="95" identifier="a5L9jSTmBV"/>
      <point x="794" y="90" identifier="D3wCJZghz7"/>
      <point x="810" y="90" type="curve" smooth="yes" identifier="stHbfPHSBw"/>
      <point x="817" y="90" identifier="kKyeOvFVr6"/>
      <point x="822" y="91" identifier="4WtyrlFvVZ"/>
      <point x="828" y="93" type="curve" identifier="8yNX5WXYRl"/>
      <point x="816" y="24" type="line" identifier="2YEG2qzF5M"/>
      <point x="792" y="4" identifier="fOZTMh3Btp"/>
      <point x="747" y="-11" identifier="ycq8EPQQ5B"/>
      <point x="695" y="-11" type="curve" smooth="yes" identifier="TgHmA9gUMn"/>
      <point x="603" y="-11" identifier="uqFBN2GqN9"/>
      <point x="559" y="36" identifier="a3IzM7sNYe"/>
      <point x="559" y="110" type="curve" smooth="yes" identifier="RcV2rlmWca"/>
      <point x="559" y="133" identifier="Y2XkGwYGLe"/>
      <point x="561" y="166" identifier="2RUweonpYU"/>
      <point x="570" y="211" type="curve" smooth="yes" identifier="mkFHfH0glc"/>
      <point x="593" y="325" type="line" smooth="yes" identifier="yR3BHylfmo"/>
      <point x="598" y="349" identifier="2xkrTFKLJJ"/>
      <point x="600" y="369" identifier="rYnktUjGWq"/>
      <point x="600" y="378" type="curve" smooth="yes" identifier="UIGkxCuJRA"/>
      <point x="600" y="392" identifier="7uKn2REMAN"/>
      <point x="596" y="397" identifier="HI7JZPubR2"/>
      <point x="588" y="397" type="curve" smooth="yes" identifier="Hsh3vTdMHM"/>
      <point x="575" y="397" identifier="JuZugmx36j"/>
      <point x="565" y="382" identifier="VK2RTpZ0sW"/>
      <point x="546" y="337" type="curve" identifier="RwDLVerWP4"/>
      <point x="529" y="380" type="line" identifier="uxFkdAK94q"/>
      <point x="568" y="477" identifier="x7LmpMF4q8"/>
      <point x="622" y="522" identifier="rtBMAYcJM8"/>
      <point x="709" y="523" type="curve" smooth="yes" identifier="VWGlZsUvgF"/>
      <point x="784" y="524" identifier="YbNEP0hAxR"/>
      <point x="834" y="484" identifier="fPGopzJQB9"/>
      <point x="834" y="403" type="curve" smooth="yes" identifier="q6dMNLm3zW"/>
      <point x="834" y="383" identifier="ZcwffOjPZp"/>
      <point x="834" y="356" identifier="3IortizaK8"/>
      <point x="820" y="286" type="curve" smooth="yes" identifier="LuxOBfCbbh"/>
    </contour>
  </outline>
</glyph>
<glyph name="o" format="2">
  <advance width="564"/>
  <unicode hex="006F"/>
  <guideline x="288.0" y="254.0" angle="315.0" identifier="dgw4Ekuz0M"/>
  <anchor x="281" y="513" name="top"/>
  <anchor x="397" y="0" name="right"/>
  <anchor x="281" y="0" name="bottom"/>
  <outline>
    <contour>
      <point x="12" y="228" type="curve"/>
      <point x="12" y="99"/>
      <point x="93" y="-14"/>
      <point x="273" y="-14" type="curve" smooth="yes"/>
      <point x="455" y="-14"/>
      <point x="552" y="110"/>
      <point x="552" y="281" type="curve"/>
      <point x="552" y="410"/>
      <point x="471" y="523"/>
      <point x="291" y="523" type="curve" smooth="yes"/>
      <point x="109" y="523"/>
      <point x="12" y="399"/>
    </contour>
    <contour>
      <point x="318" y="223" type="curve"/>
      <point x="303" y="100"/>
      <point x="287" y="73"/>
      <point x="263" y="73" type="curve" smooth="yes"/>
      <point x="243" y="73"/>
      <point x="235" y="89"/>
      <point x="235" y="131" type="curve" smooth="yes"/>
      <point x="235" y="164"/>
      <point x="238" y="212"/>
      <point x="247" y="285" type="curve"/>
      <point x="262" y="408"/>
      <point x="277" y="435"/>
      <point x="302" y="435" type="curve" smooth="yes"/>
      <point x="321" y="435"/>
      <point x="330" y="419"/>
      <point x="330" y="377" type="curve" smooth="yes"/>
      <point x="330" y="345"/>
      <point x="327" y="296"/>
    </contour>
  </outline>
</glyph>
<glyph name="p" format="2">
  <advance width="567"/>
  <unicode hex="0070"/>
  <outline>
    <contour>
      <point x="-79" y="-223" type="line" identifier="guHVV0YYpD"/>
      <point x="214" y="-223" type="line" identifier="WbOYwEBAli"/>
      <point x="226" y="-151" type="line" identifier="M24A56TVuR"/>
      <point x="223" y="-151" type="line" smooth="yes" identifier="MuUwYiNA6I"/>
      <point x="207" y="-151" identifier="Y6OEwL2AT0"/>
      <point x="188" y="-149" identifier="gm6C75Kcif"/>
      <point x="189" y="-143" type="curve" smooth="yes" identifier="rYSEZiXS3l"/>
      <point x="286" y="407" type="line" identifier="zHnGwsTNjT"/>
      <point x="274" y="411" type="line" identifier="wGBW6Htura"/>
      <point x="290" y="513" type="line" identifier="CAapFVe8wX"/>
      <point x="44" y="513" type="line" identifier="5iLtAxtXH1"/>
      <point x="31" y="438" type="line" identifier="qjh7oxK6S5"/>
      <point x="38" y="436" type="line" smooth="yes" identifier="DFCsJvoDn6"/>
      <point x="49" y="433" identifier="KS8zaUmNfx"/>
      <point x="55" y="425" identifier="C1qEhgjtT8"/>
      <point x="52" y="407" type="curve" smooth="yes" identifier="UrYjBrL501"/>
      <point x="-42" y="-124" type="line" smooth="yes" identifier="Sg6I23hV3g"/>
      <point x="-46" y="-145" identifier="vFv8LmDZ3r"/>
      <point x="-56" y="-151" identifier="iQ31zLLsvW"/>
      <point x="-65" y="-151" type="curve" smooth="yes" identifier="vy2gCefkyK"/>
      <point x="-67" y="-151" type="line" identifier="4Az53fW9Xl"/>
    </contour>
    <contour>
      <point x="562" y="324" type="curve" smooth="yes" identifier="NlvK3d9Y3p"/>
      <point x="562" y="452" identifier="3mheyH4uhR"/>
      <point x="505" y="524" identifier="NYMfm5GG3l"/>
      <point x="403" y="524" type="curve" smooth="yes" identifier="6l4nZraP7h"/>
      <point x="320" y="524" identifier="qHJIAusq3d"/>
      <point x="278" y="477" identifier="KuMoGZdx2P"/>
      <point x="234" y="350" type="curve" identifier="VsnZnnA6rj"/>
      <point x="275" y="380" type="line" identifier="0tAgpBvvYs"/>
      <point x="291" y="410" identifier="AEIDXgQgNR"/>
      <point x="304" y="420" identifier="l9aBHd1QFb"/>
      <point x="320" y="420" type="curve" smooth="yes" identifier="H9bvui1T2i"/>
      <point x="335" y="420" identifier="Svf7pZVX9S"/>
      <point x="339" y="412" identifier="QF51hPWXeX"/>
      <point x="339" y="358" type="curve" smooth="yes" identifier="ghQ7CedUTX"/>
      <point x="339" y="259" identifier="IfjCvSxBeK"/>
      <point x="301" y="70" identifier="8ryes8flqv"/>
      <point x="250" y="70" type="curve" smooth="yes" identifier="Z1UYMIWZ4V"/>
      <point x="227" y="70" identifier="so0BuRG2zQ"/>
      <point x="210" y="93" identifier="PuwfXR3fVX"/>
      <point x="213" y="170" type="curve" identifier="joh7vNFpWb"/>
      <point x="141" y="141" type="line" identifier="zm3Sc6Nbvy"/>
      <point x="152" y="59" identifier="AuX0G44FE3"/>
      <point x="184" y="-14" identifier="G8P9eklVzs"/>
      <point x="283" y="-14" type="curve" smooth="yes" identifier="ijOcm0En04"/>
      <point x="455" y="-14" identifier="IL0bqES3Fn"/>
      <point x="562" y="147" identifier="jEgo8bxkYG"/>
    </contour>
  </outline>
</glyph>
<glyph name="r" format="2">
  <advance width="405"/>
  <unicode hex="0072"/>
  <anchor x="218" y="513" name="top"/>
  <anchor x="155" y="0" name="bottom"/>
  <outline>
    <contour>
      <point x="-17" y="0" type="line" identifier="Y2Ocaqc4lR"/>
      <point x="217" y="0" type="line" identifier="ivtPbq1INN"/>
      <point x="277" y="342" type="line" identifier="YUUtGkkdMb"/>
      <point x="262" y="316" type="line" identifier="tlJ3gntsss"/>
      <point x="294" y="513" type="line" identifier="udvdgzzpWF"/>
      <point x="47" y="513" type="line" identifier="Hf0KO4uUg5"/>
      <point x="34" y="438" type="line" identifier="OVHtgjQsbh"/>
      <point x="41" y="436" type="line" smooth="yes" identifier="IVuM0uUp8S"/>
      <point x="52" y="433" identifier="03VEF2HmUx"/>
      <point x="58" y="425" identifier="MGBbQkDMbe"/>
      <point x="55" y="407" type="curve" smooth="yes" identifier="9cXV4DInws"/>
    </contour>
    <contour>
      <point x="442" y="514" type="line" identifier="LnELhuQtWL"/>
      <point x="432" y="517" identifier="etNgf9xfxR"/>
      <point x="421" y="518" identifier="kjXWlEDwJl"/>
      <point x="403" y="518" type="curve" smooth="yes" identifier="iRnjewYlWU"/>
      <point x="335" y="518" identifier="VhKMxej8YB"/>
      <point x="295" y="461" identifier="OwCj5qRiaF"/>
      <point x="258" y="318" type="curve" identifier="vzVMqpFQDa"/>
      <point x="255" y="274" type="line" identifier="a6aCBNHc0y"/>
      <point x="273" y="314" identifier="wyJKKRneGg"/>
      <point x="304" y="329" identifier="qJPQfs4Kus"/>
      <point x="351" y="329" type="curve" smooth="yes" identifier="9A06HNC1tH"/>
      <point x="372" y="329" identifier="l5kX1qoe9j"/>
      <point x="389" y="326" identifier="RHynOcHK1D"/>
      <point x="404" y="321" type="curve" identifier="plNor0D4xs"/>
    </contour>
  </outline>
</glyph>
<glyph name="s" format="2">
  <advance width="469"/>
  <unicode hex="0073"/>
  <guideline x="308" y="367" angle="80" identifier="lqidfQKYQZ"/>
  <guideline x="446" y="367" angle="80" identifier="UBzsz1tUuY"/>
  <guideline x="143" y="46" angle="80" identifier="CEbbceeqGc"/>
  <guideline x="-1" y="46" angle="80" identifier="phK6ddf41s"/>
  <anchor x="243" y="513" name="top"/>
  <anchor x="247" y="0" name="bottom"/>
  <outline>
    <contour>
      <point x="212" y="-11" type="curve" smooth="yes"/>
      <point x="378" y="-11"/>
      <point x="450" y="65"/>
      <point x="450" y="180" type="curve" smooth="yes"/>
      <point x="450" y="274"/>
      <point x="377" y="315"/>
      <point x="317" y="341" type="curve" smooth="yes"/>
      <point x="275" y="359"/>
      <point x="242" y="374"/>
      <point x="242" y="401" type="curve" smooth="yes"/>
      <point x="242" y="426"/>
      <point x="254" y="441"/>
      <point x="284" y="441" type="curve" smooth="yes"/>
      <point x="308" y="441"/>
      <point x="321" y="433"/>
      <point x="338" y="415" type="curve"/>
      <point x="357" y="427"/>
      <point x="342" y="460"/>
      <point x="325" y="460" type="curve"/>
      <point x="309" y="367" type="line"/>
      <point x="447" y="367" type="line"/>
      <point x="466" y="475" type="line"/>
      <point x="437" y="498"/>
      <point x="368" y="518"/>
      <point x="276" y="518" type="curve" smooth="yes"/>
      <point x="134" y="518"/>
      <point x="44" y="455"/>
      <point x="44" y="337" type="curve" smooth="yes"/>
      <point x="44" y="238"/>
      <point x="116" y="202"/>
      <point x="175" y="178" type="curve" smooth="yes"/>
      <point x="217" y="161"/>
      <point x="251" y="147"/>
      <point x="251" y="117" type="curve" smooth="yes"/>
      <point x="251" y="85"/>
      <point x="236" y="67"/>
      <point x="189" y="67" type="curve" smooth="yes"/>
      <point x="152" y="67"/>
      <point x="135" y="82"/>
      <point x="122" y="102" type="curve"/>
      <point x="117" y="83"/>
      <point x="126" y="54"/>
      <point x="143" y="44" type="curve"/>
      <point x="164" y="159" type="line"/>
      <point x="20" y="159" type="line"/>
      <point x="-1" y="39" type="line"/>
      <point x="32" y="14"/>
      <point x="113" y="-11"/>
    </contour>
  </outline>
</glyph>
<glyph name="t" format="2">
  <advance width="364"/>
  <unicode hex="0074"/>
  <guideline x="323" y="654" angle="80" identifier="NAG2FNHtrw"/>
  <guideline x="31" y="508" angle="80" identifier="8agVfABrul"/>
  <guideline x="386" y="513" angle="80" identifier="grygkivpvB"/>
  <anchor x="144" y="675" name="top"/>
  <anchor x="303" y="681" name="right"/>
  <anchor x="248" y="0" name="bottom"/>
  <outline>
    <contour>
      <point x="193" y="-11" type="curve" smooth="yes"/>
      <point x="246" y="-11"/>
      <point x="288" y="-2"/>
      <point x="314" y="7" type="curve"/>
      <point x="322" y="92" type="line"/>
      <point x="313" y="88"/>
      <point x="298" y="84"/>
      <point x="282" y="84" type="curve" smooth="yes"/>
      <point x="248.0" y="84.0"/>
      <point x="233.0" y="95.0"/>
      <point x="233" y="129" type="curve" smooth="yes"/>
      <point x="233" y="140"/>
      <point x="235" y="157"/>
      <point x="239" y="178" type="curve" smooth="yes"/>
      <point x="322" y="652" type="line"/>
      <point x="97" y="652" type="line"/>
      <point x="79" y="548" type="line" smooth="yes"/>
      <point x="74" y="518"/>
      <point x="62" y="508"/>
      <point x="33" y="508" type="curve" smooth="yes"/>
      <point x="31" y="508" type="line"/>
      <point x="18" y="433" type="line"/>
      <point x="372" y="433" type="line"/>
      <point x="386" y="513" type="line"/>
      <point x="108" y="513" type="line"/>
      <point x="69" y="491" type="line"/>
      <point x="22" y="225" type="line" smooth="yes"/>
      <point x="14" y="179"/>
      <point x="12" y="151"/>
      <point x="12" y="133" type="curve" smooth="yes"/>
      <point x="12" y="35"/>
      <point x="73" y="-11"/>
    </contour>
  </outline>
</glyph>
<glyph name="w" format="2">
  <advance width="742"/>
  <unicode hex="0077"/>
  <guideline x="25" y="489" angle="80" identifier="SvTkAwmdOT"/>
  <anchor x="375" y="513" name="top"/>
  <outline>
    <contour>
      <point x="363" y="512" type="line"/>
      <point x="313" y="368"/>
      <point x="264" y="226"/>
      <point x="214" y="82" type="curve"/>
      <point x="259" y="68" type="line"/>
      <point x="259" y="513" type="line"/>
      <point x="34" y="514" type="line"/>
      <point x="21" y="439" type="line"/>
      <point x="27" y="437" type="line" smooth="yes"/>
      <point x="40" y="433"/>
      <point x="46" y="426"/>
      <point x="47" y="408" type="curve" smooth="yes"/>
      <point x="60" y="1" type="line"/>
      <point x="255" y="0" type="line"/>
      <point x="292" y="109"/>
      <point x="329" y="219"/>
      <point x="364" y="329" type="curve"/>
      <point x="353" y="309" type="line"/>
      <point x="369" y="-1" type="line"/>
      <point x="552" y="-2" type="line"/>
      <point x="624" y="165"/>
      <point x="697" y="331"/>
      <point x="770" y="498" type="curve"/>
      <point x="770" y="510" type="line"/>
      <point x="633" y="511" type="line"/>
      <point x="593" y="363"/>
      <point x="555" y="214"/>
      <point x="516" y="65" type="curve"/>
      <point x="556" y="66" type="line"/>
      <point x="536" y="511" type="line"/>
    </contour>
  </outline>
</glyph>
<glyph name="x" format="2">
  <advance width="523"/>
  <unicode hex="0078"/>
  <guideline x="311" y="512" angle="288.259374971522" identifier="2OFDq82Rly"/>
  <guideline x="-20" y="11" angle="80" identifier="PBtQYSa34m"/>
  <outline>
    <contour>
      <point x="347" y="245" type="line" identifier="tULod958tu"/>
      <point x="547" y="502" type="line" identifier="76OK8BygOG"/>
      <point x="547" y="512" type="line" identifier="VFnS3JnJBL"/>
      <point x="410" y="512" type="line" identifier="PTdecC9P9O"/>
      <point x="299" y="283" type="line" identifier="tI82SSqgIs"/>
    </contour>
    <contour>
      <point x="-24" y="0" type="line" identifier="N8uRoa6smz"/>
      <point x="121" y="0" type="line" identifier="JHSUSOHXTg"/>
      <point x="234" y="224" type="line" identifier="3KwPKjSSsI"/>
      <point x="185" y="263" type="line" identifier="8WxhAR7krW"/>
      <point x="-22" y="12" type="line" identifier="ePEwNv6iFe"/>
    </contour>
    <contour>
      <point x="341" y="-13" type="curve" smooth="yes" identifier="TzPfmrgWOw"/>
      <point x="393" y="-13" identifier="HGBfKze4TF"/>
      <point x="446" y="-1" identifier="NDbkOT8QSO"/>
      <point x="471" y="14" type="curve" identifier="3A6ohOFAjK"/>
      <point x="476" y="96" type="line" identifier="vfEQjbHC7A"/>
      <point x="473" y="95" identifier="f0SsHS25CB"/>
      <point x="464" y="93" identifier="5ErURCs4fu"/>
      <point x="456" y="93" type="curve" smooth="yes" identifier="FdNvei85wG"/>
      <point x="436" y="93" identifier="7jURhquNEY"/>
      <point x="424" y="104" identifier="ygOlvTDLCP"/>
      <point x="413" y="144" type="curve" smooth="yes" identifier="zIsSQAvEeN"/>
      <point x="302" y="512" type="line" identifier="GzL39M607h"/>
      <point x="89" y="512" type="line" identifier="FhTNTYZqDe"/>
      <point x="76" y="437" type="line" identifier="Yfdn4iVaJO"/>
      <point x="87" y="435" type="line" smooth="yes" identifier="gQCmdLnUj0"/>
      <point x="97" y="433" identifier="krPTd4aYH7"/>
      <point x="105" y="425" identifier="vIhyQZgFCl"/>
      <point x="110" y="406" type="curve" smooth="yes" identifier="ygKuOSPxip"/>
      <point x="208" y="81" type="line" smooth="yes" identifier="snQHdxphZV"/>
      <point x="228" y="16" identifier="jyVhprsKAa"/>
      <point x="266" y="-13" identifier="plAZXewJLb"/>
    </contour>
  </outline>
</glyph>
<glyph name="y" format="2">
  <advance width="484"/>
  <unicode hex="0079"/>
  <anchor x="228.0" y="513" name="top"/>
  <anchor x="238.0" y="-211" name="bottom"/>
  <anchor x="21.0" y="510" identifier="3FNSGoWVmT"/>
  <anchor x="-1.0" y="-59" identifier="SIM0b1Ml4H"/>
  <anchor x="-1.0" y="-59" identifier="XUhkaAKNb0"/>
  <anchor x="9.0" y="419" identifier="xkRPkmu3jz"/>
  <outline>
    <contour>
      <point x="155" y="-105" type="line" identifier="aTWxtAMRxx"/>
      <point x="37" y="407" type="line" smooth="yes" identifier="bWMEMbR5Rg"/>
      <point x="31" y="430" identifier="JtHGwch1rQ"/>
      <point x="30" y="432" identifier="Vge6EP4K1g"/>
      <point x="18" y="436" type="curve" smooth="yes" identifier="1v4R68xh29"/>
      <point x="12" y="438" type="line" identifier="aydzHoKWKg"/>
      <point x="26" y="513" type="line" identifier="WRls0C1UoJ"/>
      <point x="253" y="513" type="line" identifier="unuLh821D3"/>
      <point x="311" y="145" type="line" identifier="ot8aPs4PIa"/>
      <point x="201" y="-33" type="line" identifier="f1IejIDrnc"/>
    </contour>
    <contour>
      <point x="263" y="108" type="line" identifier="igr5wBHCRU"/>
      <point x="301" y="243" identifier="GZ12rCk56B"/>
      <point x="342" y="383" identifier="B9acr8Viug"/>
      <point x="378" y="513" type="curve" identifier="VPsj85ONbE"/>
      <point x="520" y="513" type="line" identifier="1ObHdBhXLO"/>
      <point x="518" y="501" type="line" identifier="Izt1CgL1tz"/>
      <point x="442" y="341" identifier="D6H4wFJOL8"/>
      <point x="367" y="181" identifier="T0xdMhqUd3"/>
      <point x="276" y="-7" type="curve" smooth="yes" identifier="FX5X2DDWVG"/>
      <point x="195" y="-175" identifier="4DiR6Froqu"/>
      <point x="145" y="-235" identifier="XO9rwVDrsD"/>
      <point x="44" y="-235" type="curve" smooth="yes" identifier="1bnOtUf7cP"/>
      <point x="12" y="-235" identifier="yRnNFotCNs"/>
      <point x="-11" y="-229" identifier="T7lq3atbIY"/>
      <point x="-30" y="-219" type="curve" identifier="G8ZvIuFEJm"/>
      <point x="-3" y="-67" type="line" identifier="0jtBYYYED9"/>
      <point x="16" y="-77" identifier="o8K36AlDvZ"/>
      <point x="47" y="-84" identifier="LcqCdHaQad"/>
      <point x="76" y="-84" type="curve" smooth="yes" identifier="qDXBypN8Au"/>
      <point x="137" y="-84" identifier="iDS95Exqf7"/>
      <point x="158" y="-57" identifier="JzOuwgWFOq"/>
      <point x="169" y="8" type="curve" identifier="baYLm8EUGG"/>
    </contour>
  </outline>
</glyph>
<glyph name="z" format="2">
  <advance width="467"/>
  <unicode hex="007A"/>
  <guideline x="455" y="415" angle="49.22223020614269" identifier="dwVnO7XbRk"/>
  <guideline x="456" y="471" angle="80.05942696688697" identifier="iMmw0pKOBG"/>
  <guideline x="463" y="512" angle="0" identifier="pMigBwbWag"/>
  <guideline x="114" y="267" angle="80" identifier="kKF4EEw6fF"/>
  <anchor x="240.0" y="513" name="top"/>
  <anchor x="264.0" y="0" name="bottom"/>
  <anchor x="452.0" y="513" identifier="0INMResVde"/>
  <outline>
    <contour>
      <point x="295" y="-12" type="curve" smooth="yes" identifier="32mw7syXqw"/>
      <point x="417" y="-12" identifier="JPIhmNMpTn"/>
      <point x="467" y="95" identifier="BYpHuExlbe"/>
      <point x="439" y="260" type="curve" identifier="VMqzZ7enoI"/>
      <point x="370" y="266" type="line" identifier="hKxB38HpCF"/>
      <point x="367" y="181" identifier="dAxu3Jo0C5"/>
      <point x="350" y="155" identifier="5BuG1X9FGj"/>
      <point x="291" y="155" type="curve" smooth="yes" identifier="ChF9tonZBS"/>
      <point x="250" y="155" identifier="SvbPDlKF6f"/>
      <point x="228" y="170" identifier="YWe3Bn0zbH"/>
      <point x="215" y="197" type="curve" identifier="frMB0MdKtA"/>
      <point x="153" y="125" type="line" identifier="Gd0KU7UN9A"/>
      <point x="180" y="25" identifier="8Lp9KBbwuh"/>
      <point x="223" y="-12" identifier="7lLScnWyog"/>
    </contour>
    <contour>
      <point x="73" y="0" type="line" identifier="SiI1jT00AJ"/>
      <point x="420" y="402" type="line" identifier="b1cIHtLKtc"/>
      <point x="439" y="512" type="line" identifier="cimWaq2cmA"/>
      <point x="59" y="512" type="line" identifier="4TjVtsHagY"/>
      <point x="16" y="267" type="line" identifier="abui5xo4l6"/>
      <point x="90" y="267" type="line" identifier="FZuSPYMv72"/>
      <point x="99" y="303" type="line" smooth="yes" identifier="rPgM8wP7qL"/>
      <point x="108" y="341" identifier="bv1GjLQuFJ"/>
      <point x="124" y="349" identifier="El7s86KLz4"/>
      <point x="188" y="349" type="curve" smooth="yes" identifier="ncDlAOO1iH"/>
      <point x="306" y="349" type="line" identifier="0In8FXcS41"/>
      <point x="302" y="394" type="line" identifier="R22hjYtREI"/>
      <point x="-6" y="37" type="line" identifier="HlDJOgKdtB"/>
      <point x="-13" y="0" type="line" identifier="KZW39P8PuF"/>
    </contour>
  </outline>
</glyph>
<glyph name="bar" format="2">
  <advance width="256"/>
  <unicode hex="007C"/>
  <outline>
    <contour>
      <point x="56" y="767" type="line"/>
      <point x="56" y="-164" type="line"/>
      <point x="195" y="-164" type="line"/>
      <point x="195" y="767" type="line"/>
    </contour>
  </outline>
</glyph>
<glyph name="asciitilde" format="2">
  <advance width="443"/>
  <unicode hex="007E"/>
  <outline>
    <contour>
      <point x="174" y="480" type="curve" smooth="yes"/>
      <point x="89" y="480"/>
      <point x="41" y="415"/>
      <point x="19" y="289" type="curve"/>
      <point x="103" y="260" type="line"/>
      <point x="115" y="299"/>
      <point x="123" y="322"/>
      <point x="155" y="322" type="curve" smooth="yes"/>
      <point x="198" y="322"/>
      <point x="224" y="262"/>
      <point x="303" y="262" type="curve" smooth="yes"/>
      <point x="384" y="262"/>
      <point x="441" y="327"/>
      <point x="464" y="455" type="curve"/>
      <point x="378" y="485" type="line"/>
      <point x="364" y="441"/>
      <point x="352" y="420"/>
      <point x="320" y="420" type="curve" smooth="yes"/>
      <point x="269" y="420"/>
      <point x="249" y="480"/>
    </contour>
  </outline>
</glyph>
<glyph name="currency" format="2">
  <advance width="471"/>
  <unicode hex="00A4"/>
  <outline>
    <contour>
      <point x="65" y="90" type="line"/>
      <point x="181" y="206" type="line"/>
      <point x="102" y="290" type="line"/>
      <point x="-9" y="181" type="line"/>
    </contour>
    <contour>
      <point x="43" y="568" type="line"/>
      <point x="123" y="456" type="line"/>
      <point x="233" y="540" type="line"/>
      <point x="148" y="658" type="line"/>
    </contour>
    <contour>
      <point x="352" y="88" type="line"/>
      <point x="457" y="178" type="line"/>
      <point x="377" y="290" type="line"/>
      <point x="266" y="207" type="line"/>
    </contour>
    <contour>
      <point x="508" y="565" type="line"/>
      <point x="434" y="655" type="line"/>
      <point x="318" y="539" type="line"/>
      <point x="398" y="456" type="line"/>
    </contour>
    <contour>
      <point x="243" y="288" type="curve" smooth="yes"/>
      <point x="216.0" y="288.0"/>
      <point x="199" y="311"/>
      <point x="199" y="355" type="curve" smooth="yes"/>
      <point x="199.0" y="425"/>
      <point x="223" y="458.0"/>
      <point x="258" y="458" type="curve" smooth="yes"/>
      <point x="285" y="458"/>
      <point x="302" y="435"/>
      <point x="302" y="391" type="curve" smooth="yes"/>
      <point x="302.0" y="321.0"/>
      <point x="278.0" y="288.0"/>
    </contour>
    <contour>
      <point x="60" y="349" type="curve"/>
      <point x="60" y="231"/>
      <point x="136" y="154"/>
      <point x="233" y="154" type="curve" smooth="yes"/>
      <point x="348" y="154.0"/>
      <point x="441.0" y="253"/>
      <point x="441" y="397" type="curve"/>
      <point x="441" y="515"/>
      <point x="365" y="592"/>
      <point x="268" y="592" type="curve" smooth="yes"/>
      <point x="153.0" y="592.0"/>
      <point x="60.0" y="493.0"/>
    </contour>
  </outline>
</glyph>
<glyph name="eogonek" format="2">
  <advance width="498"/>
  <unicode hex="0119"/>
  <outline>
    <contour>
      <point x="403" y="51" type="curve" smooth="yes"/>
      <point x="424" y="74"/>
      <point x="444" y="105"/>
      <point x="455" y="137" type="curve"/>
      <point x="389" y="169" type="line"/>
      <point x="358" y="100"/>
      <point x="332" y="83"/>
      <point x="297" y="83" type="curve" smooth="yes"/>
      <point x="254" y="83"/>
      <point x="236" y="105"/>
      <point x="236" y="182" type="curve" smooth="yes"/>
      <point x="236" y="342"/>
      <point x="275" y="436"/>
      <point x="308" y="436" type="curve" smooth="yes"/>
      <point x="322" y="436"/>
      <point x="329" y="427"/>
      <point x="329" y="403" type="curve" smooth="yes"/>
      <point x="329" y="335"/>
      <point x="294" y="276"/>
      <point x="199" y="270" type="curve"/>
      <point x="197" y="210" type="line"/>
      <point x="400" y="220"/>
      <point x="489" y="297"/>
      <point x="489" y="386" type="curve" smooth="yes"/>
      <point x="489" y="464"/>
      <point x="426" y="524"/>
      <point x="318" y="524" type="curve" smooth="yes"/>
      <point x="134" y="524"/>
      <point x="8" y="362"/>
      <point x="8" y="205" type="curve" smooth="yes"/>
      <point x="8" y="74"/>
      <point x="86" y="-14"/>
      <point x="240" y="-14" type="curve" smooth="yes"/>
      <point x="287" y="-14"/>
      <point x="325" y="-2"/>
      <point x="353" y="16" type="curve"/>
      <point x="351" y="24" type="line"/>
      <point x="208" y="-24"/>
      <point x="138" y="-66"/>
      <point x="138" y="-141" type="curve" smooth="yes"/>
      <point x="138.0" y="-212.0"/>
      <point x="190" y="-245"/>
      <point x="270" y="-245" type="curve" smooth="yes"/>
      <point x="336" y="-245"/>
      <point x="387" y="-219"/>
      <point x="417" y="-177" type="curve"/>
      <point x="382" y="-124" type="line"/>
      <point x="368" y="-138"/>
      <point x="356" y="-148"/>
      <point x="338" y="-148" type="curve"/>
      <point x="319" y="-148"/>
      <point x="307" y="-136"/>
      <point x="305" y="-112" type="curve"/>
      <point x="305" y="-55"/>
      <point x="340" y="-18"/>
    </contour>
  </outline>
</glyph>
<glyph name="Eng" format="2">
  <advance width="605"/>
  <unicode hex="014A"/>
  <outline>
    <contour>
      <point x="330" y="-212" type="curve" smooth="yes"/>
      <point x="297" y="-212"/>
      <point x="261" y="-204"/>
      <point x="234" y="-193" type="curve"/>
      <point x="252" y="-92" type="line"/>
      <point x="267" y="-99"/>
      <point x="296" y="-113"/>
      <point x="332" y="-113" type="curve" smooth="yes"/>
      <point x="368" y="-113"/>
      <point x="396" y="-86"/>
      <point x="406" y="-5" type="curve" smooth="yes"/>
      <point x="424" y="95" type="line"/>
      <point x="411" y="-109" type="line"/>
      <point x="145" y="672" type="line"/>
      <point x="192" y="675" type="line"/>
      <point x="107" y="91" type="line" smooth="yes"/>
      <point x="106" y="84"/>
      <point x="122" y="77"/>
      <point x="141" y="77" type="curve" smooth="yes"/>
      <point x="151" y="77" type="line"/>
      <point x="137" y="0" type="line"/>
      <point x="-35" y="0" type="line"/>
      <point x="-21" y="77" type="line"/>
      <point x="-13" y="77" type="line" smooth="yes"/>
      <point x="5" y="77"/>
      <point x="18" y="88"/>
      <point x="22" y="117" type="curve" smooth="yes"/>
      <point x="89" y="597" type="line" smooth="yes"/>
      <point x="94" y="626"/>
      <point x="83" y="633"/>
      <point x="66" y="633" type="curve" smooth="yes"/>
      <point x="58" y="633" type="line"/>
      <point x="70" y="710" type="line"/>
      <point x="397" y="710" type="line"/>
      <point x="492" y="297" type="line"/>
      <point x="440" y="148" type="line"/>
      <point x="504" y="619" type="line" smooth="yes"/>
      <point x="505" y="626"/>
      <point x="489" y="633"/>
      <point x="471" y="633" type="curve" smooth="yes"/>
      <point x="461" y="633" type="line"/>
      <point x="474" y="710" type="line"/>
      <point x="646" y="710" type="line"/>
      <point x="634" y="633" type="line"/>
      <point x="626" y="633" type="line" smooth="yes"/>
      <point x="608" y="633"/>
      <point x="594" y="626"/>
      <point x="590" y="598" type="curve" smooth="yes"/>
      <point x="504" y="-5" type="line" smooth="yes"/>
      <point x="483" y="-148"/>
      <point x="439" y="-212"/>
    </contour>
  </outline>
</glyph>
<glyph name="emdash" format="2">
  <advance width="797"/>
  <unicode hex="2014"/>
  <outline>
    <contour>
      <point x="65" y="379" type="line"/>
      <point x="44" y="259" type="line"/>
      <point x="738" y="259" type="line"/>
      <point x="759" y="379" type="line"/>
    </contour>
  </outline>
</glyph>
<glyph name="quoteright" format="2">
  <advance width="266"/>
  <unicode hex="2019"/>
  <outline>
    <contour>
      <point x="143" y="345" type="line"/>
      <point x="257" y="427"/>
      <point x="302.0" y="527.6165413533835"/>
      <point x="302" y="598" type="curve" smooth="yes"/>
      <point x="302" y="672"/>
      <point x="251" y="715"/>
      <point x="199" y="715" type="curve" smooth="yes"/>
      <point x="138" y="715"/>
      <point x="102" y="671"/>
      <point x="102" y="624" type="curve" smooth="yes"/>
      <point x="102" y="576"/>
      <point x="145" y="540"/>
      <point x="190" y="540" type="curve" smooth="yes"/>
      <point x="202" y="540"/>
      <point x="209" y="544"/>
      <point x="218" y="552" type="curve"/>
      <point x="210" y="571" type="line"/>
      <point x="194.30949293765465" y="514.6987687762902"/>
      <point x="140" y="457"/>
      <point x="62" y="420" type="curve"/>
    </contour>
  </outline>
</glyph>
<glyph name="bullet" format="2">
  <advance width="348"/>
  <unicode hex="2022"/>
  <outline>
    <contour>
      <point x="69" y="337" type="curve" smooth="yes"/>
      <point x="69" y="255"/>
      <point x="117" y="207"/>
      <point x="185" y="207" type="curve" smooth="yes"/>
      <point x="252" y="207"/>
      <point x="300" y="255"/>
      <point x="300" y="337" type="curve" smooth="yes"/>
      <point x="300" y="419"/>
      <point x="252" y="467"/>
      <point x="185" y="467" type="curve" smooth="yes"/>
      <point x="117" y="467"/>
      <point x="69" y="419"/>
    </contour>
  </outline>
</glyph>
<glyph name="backslash.uc" format="2">
  <advance width="431"/>
  <outline>
    <contour>
      <point x="139" y="724" type="line"/>
      <point x="412" y="-35" type="line"/>
      <point x="262" y="-35" type="line"/>
      <point x="-11" y="724" type="line"/>
    </contour>
  </outline>
</glyph>
<glyph name="blackuppointingtriangle" format="2">
  <advance width="542"/>
  <outline>
    <contour>
      <point x="47" y="91" type="line"/>
      <point x="496" y="91" type="line"/>
      <point x="271" y="464" type="line"/>
    </contour>
  </outline>
</glyph>
<glyph name="bracketleft.uc" format="2">
  <advance width="313"/>
  <outline>
    <contour>
      <point x="257" y="55" type="line"/>
      <point x="174" y="55" type="line"/>
      <point x="280" y="657" type="line"/>
      <point x="363" y="657" type="line"/>
      <point x="379" y="750" type="line"/>
      <point x="117" y="750" type="line"/>
      <point x="-21" y="-38" type="line"/>
      <point x="241" y="-38" type="line"/>
    </contour>
  </outline>
</glyph>
<glyph name="breve.uc" format="2">
  <advance width="421"/>
  <anchor x="210" y="694" name="_top"/>
  <outline>
    <contour>
      <point x="204" y="747" type="curve" smooth="yes"/>
      <point x="117" y="747"/>
      <point x="63" y="794"/>
      <point x="63" y="889" type="curve" smooth="yes"/>
      <point x="63" y="897"/>
      <point x="63" y="905"/>
      <point x="65" y="914" type="curve"/>
      <point x="163" y="914" type="line"/>
      <point x="161" y="874"/>
      <point x="181" y="863"/>
      <point x="214" y="863" type="curve" smooth="yes"/>
      <point x="248" y="863"/>
      <point x="267" y="876"/>
      <point x="273" y="914" type="curve"/>
      <point x="367" y="914" type="line"/>
      <point x="348" y="784"/>
      <point x="283" y="747"/>
    </contour>
  </outline>
</glyph>
<glyph name="dieresis.uc" format="2">
  <advance width="421"/>
  <anchor x="212" y="694" name="_top"/>
  <outline>
    <contour>
      <point x="85" y="764" type="curve" smooth="yes"/>
      <point x="157" y="764"/>
      <point x="197" y="801"/>
      <point x="197" y="861" type="curve" smooth="yes"/>
      <point x="197" y="914"/>
      <point x="162" y="947"/>
      <point x="97" y="947" type="curve" smooth="yes"/>
      <point x="25" y="947"/>
      <point x="-15" y="910"/>
      <point x="-15" y="851" type="curve" smooth="yes"/>
      <point x="-15" y="797"/>
      <point x="20" y="764"/>
    </contour>
    <contour>
      <point x="306" y="764" type="curve" smooth="yes"/>
      <point x="378" y="764"/>
      <point x="418" y="801"/>
      <point x="418" y="861" type="curve" smooth="yes"/>
      <point x="418" y="914"/>
      <point x="383" y="947"/>
      <point x="319" y="947" type="curve" smooth="yes"/>
      <point x="247" y="947"/>
      <point x="207" y="910"/>
      <point x="207" y="851" type="curve" smooth="yes"/>
      <point x="207" y="797"/>
      <point x="241" y="764"/>
    </contour>
  </outline>
</glyph>
<glyph name="parenleft.uc" format="2">
  <advance width="338"/>
  <outline>
    <contour>
      <point x="147" y="-35" type="curve"/>
      <point x="277" y="-35" type="line"/>
      <point x="277" y="-32" type="line"/>
      <point x="245" y="22"/>
      <point x="209" y="121"/>
      <point x="209" y="260" type="curve" smooth="yes"/>
      <point x="209" y="511"/>
      <point x="317" y="661"/>
      <point x="392" y="738" type="curve"/>
      <point x="392" y="741" type="line"/>
      <point x="262" y="741" type="line"/>
      <point x="138" y="690"/>
      <point x="21" y="525"/>
      <point x="21" y="289" type="curve" smooth="yes"/>
      <point x="21" y="139"/>
      <point x="78" y="26"/>
    </contour>
  </outline>
</glyph>
<glyph name="ring.uc" format="2">
  <advance width="421"/>
  <anchor x="211" y="731" name="_top"/>
  <outline>
    <contour>
      <point x="203" y="805" type="curve" smooth="yes"/>
      <point x="186" y="805"/>
      <point x="180" y="820"/>
      <point x="180" y="843" type="curve" smooth="yes"/>
      <point x="180" y="877"/>
      <point x="191" y="897"/>
      <point x="209" y="897" type="curve" smooth="yes"/>
      <point x="225" y="897"/>
      <point x="232" y="882"/>
      <point x="232" y="859" type="curve" smooth="yes"/>
      <point x="232" y="825"/>
      <point x="221" y="805"/>
    </contour>
    <contour>
      <point x="203" y="742" type="curve" smooth="yes"/>
      <point x="282" y="742"/>
      <point x="336" y="781"/>
      <point x="336" y="860" type="curve" smooth="yes"/>
      <point x="336" y="926"/>
      <point x="284" y="960"/>
      <point x="209" y="960" type="curve" smooth="yes"/>
      <point x="133" y="960"/>
      <point x="75" y="921"/>
      <point x="75" y="843" type="curve" smooth="yes"/>
      <point x="75" y="776"/>
      <point x="131" y="742"/>
    </contour>
  </outline>
</glyph>
<glyph name="whiterightpointingtriangle" format="2">
  <advance width="482"/>
  <outline>
    <contour>
      <point x="109" y="545" type="line"/>
      <point x="109" y="10" type="line"/>
      <point x="423" y="277" type="line"/>
    </contour>
    <contour>
      <point x="156" y="460" type="line"/>
      <point x="142" y="453" type="line"/>
      <point x="357" y="272" type="line"/>
      <point x="357" y="283" type="line"/>
      <point x="142" y="102" type="line"/>
      <point x="156" y="95" type="line"/>
    </contour>
  </outline>
</glyph>
<glyph name="whitesquare" format="2">
  <advance width="495"/>
  <outline>
    <contour>
      <point x="72" y="104" type="line"/>
      <point x="423" y="104" type="line"/>
      <point x="423" y="522" type="line"/>
      <point x="72" y="522" type="line"/>
    </contour>
    <contour>
      <point x="118" y="159" type="line"/>
      <point x="118" y="467" type="line"/>
      <point x="377" y="467" type="line"/>
      <point x="377" y="159" type="line"/>
    </contour>
  </outline>
</glyph>
<glyph name="zero.lin" format="2">
  <advance width="471"/>
  <outline>
    <contour>
      <point x="209" y="-11" type="curve" smooth="yes"/>
      <point x="405" y="-11"/>
      <point x="472" y="239"/>
      <point x="472" y="435" type="curve" smooth="yes"/>
      <point x="472" y="596"/>
      <point x="415" y="720"/>
      <point x="273" y="720" type="curve" smooth="yes"/>
      <point x="76" y="720"/>
      <point x="10" y="471"/>
      <point x="10" y="274" type="curve" smooth="yes"/>
      <point x="10" y="113"/>
      <point x="67" y="-11"/>
    </contour>
    <contour>
      <point x="204" y="79" type="curve" smooth="yes"/>
      <point x="197" y="79"/>
      <point x="199" y="103"/>
      <point x="199" y="143" type="curve" smooth="yes"/>
      <point x="199" y="175"/>
      <point x="209" y="246"/>
      <point x="231" y="354" type="curve" smooth="yes"/>
      <point x="268" y="569"/>
      <point x="266" y="630"/>
      <point x="278" y="630" type="curve" smooth="yes"/>
      <point x="285" y="630"/>
      <point x="283" y="606"/>
      <point x="283" y="566" type="curve" smooth="yes"/>
      <point x="283" y="534"/>
      <point x="273" y="463"/>
      <point x="251" y="356" type="curve" smooth="yes"/>
      <point x="214" y="142"/>
      <point x="213" y="79"/>
    </contour>
  </outline>
</glyph>
